<mxfile host="app.diagrams.net" modified="2022-01-22T07:36:40.613Z" agent="5.0 (Windows NT 10.0; Win64; x64) AppleWebKit/537.36 (KHTML, like Gecko) Chrome/96.0.4664.110 Whale/3.12.129.46 Safari/537.36" etag="-sD8bPPD5SHny6yUxfOI" version="16.4.5" type="github">
  <diagram id="C5RBs43oDa-KdzZeNtuy" name="Page-1">
    <mxGraphModel dx="211" dy="1717" grid="1" gridSize="10" guides="1" tooltips="1" connect="1" arrows="1" fold="1" page="1" pageScale="1" pageWidth="827" pageHeight="1169" math="0" shadow="0">
      <root>
        <mxCell id="WIyWlLk6GJQsqaUBKTNV-0" />
        <mxCell id="WIyWlLk6GJQsqaUBKTNV-1" parent="WIyWlLk6GJQsqaUBKTNV-0" />
        <mxCell id="VRQnAfxVEdhuUYbV-LeW-32" value="" style="rounded=1;whiteSpace=wrap;html=1;shadow=0;strokeWidth=1;spacing=6;spacingTop=-4;sketch=1;fillColor=#d5e8d4;strokeColor=#82b366;fontStyle=1" parent="WIyWlLk6GJQsqaUBKTNV-1" vertex="1">
          <mxGeometry x="1430" y="-546" width="1030" height="1180" as="geometry" />
        </mxCell>
        <mxCell id="VRQnAfxVEdhuUYbV-LeW-31" value="" style="rounded=1;whiteSpace=wrap;html=1;shadow=0;strokeWidth=1;spacing=6;spacingTop=-4;sketch=1;fillColor=#dae8fc;strokeColor=#6c8ebf;" parent="WIyWlLk6GJQsqaUBKTNV-1" vertex="1">
          <mxGeometry x="860" y="-546" width="520" height="350" as="geometry" />
        </mxCell>
        <mxCell id="bMZB9Vd6qo7QIXPBjNJl-21" value="" style="rounded=1;whiteSpace=wrap;html=1;fillColor=#d5e8d4;strokeColor=#82b366;" parent="WIyWlLk6GJQsqaUBKTNV-1" vertex="1">
          <mxGeometry x="1940.69" y="-910" width="450" height="70" as="geometry" />
        </mxCell>
        <mxCell id="bMZB9Vd6qo7QIXPBjNJl-19" value="" style="rounded=1;whiteSpace=wrap;html=1;fillColor=#dae8fc;strokeColor=#6c8ebf;" parent="WIyWlLk6GJQsqaUBKTNV-1" vertex="1">
          <mxGeometry x="1940.69" y="-1000" width="450" height="80" as="geometry" />
        </mxCell>
        <mxCell id="bMZB9Vd6qo7QIXPBjNJl-1" value="&lt;h1&gt;Class 정의 :&lt;/h1&gt;&lt;p&gt;&lt;br&gt;&lt;/p&gt;&lt;p&gt;비콘 수신정보&lt;/p&gt;&lt;blockquote style=&quot;margin: 0 0 0 40px ; border: none ; padding: 0px&quot;&gt;&lt;p&gt;MAC, RSSI, Tx(?)&lt;/p&gt;비콘 좌표정보&lt;/blockquote&gt;&lt;p&gt;&lt;/p&gt;&lt;p&gt;수신된 비콘 id : 거리&lt;br&gt;&lt;/p&gt;&lt;p&gt;삼변측량&lt;/p&gt;&lt;p&gt;시설 (목적지,장소 이름)&lt;/p&gt;&lt;p&gt;시설 입구 좌표&lt;/p&gt;" style="text;html=1;strokeColor=none;fillColor=none;spacing=5;spacingTop=-20;whiteSpace=wrap;overflow=hidden;rounded=0;" parent="WIyWlLk6GJQsqaUBKTNV-1" vertex="1">
          <mxGeometry x="1010" y="-1090" width="190" height="260" as="geometry" />
        </mxCell>
        <mxCell id="bMZB9Vd6qo7QIXPBjNJl-2" value="&lt;h1&gt;모듈&lt;/h1&gt;&lt;p&gt;위치 계산&lt;/p&gt;&lt;p&gt;&lt;span style=&quot;white-space: pre&quot;&gt; &lt;/span&gt;비콘수신, 비콘과의 거리, 삼변측량&lt;br&gt;&lt;/p&gt;&lt;p&gt;&lt;br&gt;&lt;/p&gt;&lt;p&gt;비콘데이터&lt;/p&gt;&lt;p&gt;경로 계산&lt;/p&gt;&lt;p&gt;진동모듈&lt;/p&gt;" style="text;html=1;strokeColor=none;fillColor=none;spacing=5;spacingTop=-20;whiteSpace=wrap;overflow=hidden;rounded=0;" parent="WIyWlLk6GJQsqaUBKTNV-1" vertex="1">
          <mxGeometry x="1417.65" y="-1090" width="252.35" height="220" as="geometry" />
        </mxCell>
        <mxCell id="bMZB9Vd6qo7QIXPBjNJl-12" value="" style="group" parent="WIyWlLk6GJQsqaUBKTNV-1" vertex="1" connectable="0">
          <mxGeometry x="1960.69" y="-960" width="420" height="30" as="geometry" />
        </mxCell>
        <mxCell id="bMZB9Vd6qo7QIXPBjNJl-4" value="수신" style="rounded=0;whiteSpace=wrap;html=1;fillColor=#fff2cc;strokeColor=#d6b656;" parent="bMZB9Vd6qo7QIXPBjNJl-12" vertex="1">
          <mxGeometry width="90" height="30" as="geometry" />
        </mxCell>
        <mxCell id="bMZB9Vd6qo7QIXPBjNJl-6" value="거리계산" style="rounded=0;whiteSpace=wrap;html=1;fillColor=#fff2cc;strokeColor=#d6b656;" parent="bMZB9Vd6qo7QIXPBjNJl-12" vertex="1">
          <mxGeometry x="110" width="90" height="30" as="geometry" />
        </mxCell>
        <mxCell id="bMZB9Vd6qo7QIXPBjNJl-8" style="edgeStyle=orthogonalEdgeStyle;rounded=0;orthogonalLoop=1;jettySize=auto;html=1;exitX=1;exitY=0.5;exitDx=0;exitDy=0;entryX=0;entryY=0.5;entryDx=0;entryDy=0;" parent="bMZB9Vd6qo7QIXPBjNJl-12" source="bMZB9Vd6qo7QIXPBjNJl-4" target="bMZB9Vd6qo7QIXPBjNJl-6" edge="1">
          <mxGeometry relative="1" as="geometry" />
        </mxCell>
        <mxCell id="bMZB9Vd6qo7QIXPBjNJl-7" value="3가지" style="rounded=0;whiteSpace=wrap;html=1;fillColor=#fff2cc;strokeColor=#d6b656;" parent="bMZB9Vd6qo7QIXPBjNJl-12" vertex="1">
          <mxGeometry x="220" width="90" height="30" as="geometry" />
        </mxCell>
        <mxCell id="bMZB9Vd6qo7QIXPBjNJl-9" style="edgeStyle=orthogonalEdgeStyle;rounded=0;orthogonalLoop=1;jettySize=auto;html=1;exitX=1;exitY=0.5;exitDx=0;exitDy=0;entryX=0;entryY=0.5;entryDx=0;entryDy=0;" parent="bMZB9Vd6qo7QIXPBjNJl-12" source="bMZB9Vd6qo7QIXPBjNJl-6" target="bMZB9Vd6qo7QIXPBjNJl-7" edge="1">
          <mxGeometry relative="1" as="geometry" />
        </mxCell>
        <mxCell id="bMZB9Vd6qo7QIXPBjNJl-10" value="위치계산" style="rounded=0;whiteSpace=wrap;html=1;fillColor=#fff2cc;strokeColor=#d6b656;" parent="bMZB9Vd6qo7QIXPBjNJl-12" vertex="1">
          <mxGeometry x="330" width="90" height="30" as="geometry" />
        </mxCell>
        <mxCell id="bMZB9Vd6qo7QIXPBjNJl-11" style="edgeStyle=orthogonalEdgeStyle;rounded=0;orthogonalLoop=1;jettySize=auto;html=1;exitX=1;exitY=0.5;exitDx=0;exitDy=0;entryX=0;entryY=0.5;entryDx=0;entryDy=0;" parent="bMZB9Vd6qo7QIXPBjNJl-12" source="bMZB9Vd6qo7QIXPBjNJl-7" target="bMZB9Vd6qo7QIXPBjNJl-10" edge="1">
          <mxGeometry relative="1" as="geometry" />
        </mxCell>
        <mxCell id="bMZB9Vd6qo7QIXPBjNJl-15" value="경로계산" style="rounded=0;whiteSpace=wrap;html=1;fillColor=#ffe6cc;strokeColor=#d79b00;" parent="WIyWlLk6GJQsqaUBKTNV-1" vertex="1">
          <mxGeometry x="2290.69" y="-890" width="90" height="30" as="geometry" />
        </mxCell>
        <mxCell id="bMZB9Vd6qo7QIXPBjNJl-17" style="edgeStyle=orthogonalEdgeStyle;rounded=0;orthogonalLoop=1;jettySize=auto;html=1;exitX=0.5;exitY=1;exitDx=0;exitDy=0;entryX=0.5;entryY=0;entryDx=0;entryDy=0;" parent="WIyWlLk6GJQsqaUBKTNV-1" source="bMZB9Vd6qo7QIXPBjNJl-10" target="bMZB9Vd6qo7QIXPBjNJl-15" edge="1">
          <mxGeometry relative="1" as="geometry" />
        </mxCell>
        <mxCell id="bMZB9Vd6qo7QIXPBjNJl-20" value="&lt;b&gt;방학&lt;/b&gt;" style="text;html=1;strokeColor=none;fillColor=none;align=center;verticalAlign=middle;whiteSpace=wrap;rounded=0;" parent="WIyWlLk6GJQsqaUBKTNV-1" vertex="1">
          <mxGeometry x="1950.69" y="-1000" width="60" height="30" as="geometry" />
        </mxCell>
        <mxCell id="bMZB9Vd6qo7QIXPBjNJl-22" value="&lt;b&gt;학기중&lt;/b&gt;" style="text;html=1;strokeColor=none;fillColor=none;align=center;verticalAlign=middle;whiteSpace=wrap;rounded=0;" parent="WIyWlLk6GJQsqaUBKTNV-1" vertex="1">
          <mxGeometry x="1960.69" y="-910" width="60" height="30" as="geometry" />
        </mxCell>
        <mxCell id="bMZB9Vd6qo7QIXPBjNJl-23" value="..." style="rounded=0;whiteSpace=wrap;html=1;fillColor=#ffe6cc;strokeColor=#d79b00;" parent="WIyWlLk6GJQsqaUBKTNV-1" vertex="1">
          <mxGeometry x="2180.69" y="-890" width="90" height="30" as="geometry" />
        </mxCell>
        <mxCell id="bMZB9Vd6qo7QIXPBjNJl-24" value="..." style="rounded=0;whiteSpace=wrap;html=1;fillColor=#ffe6cc;strokeColor=#d79b00;" parent="WIyWlLk6GJQsqaUBKTNV-1" vertex="1">
          <mxGeometry x="2070.69" y="-890" width="90" height="30" as="geometry" />
        </mxCell>
        <mxCell id="D1PhwU7BzraxwxTcJcQY-12" style="edgeStyle=orthogonalEdgeStyle;rounded=0;orthogonalLoop=1;jettySize=auto;html=1;exitX=0.5;exitY=1;exitDx=0;exitDy=0;fontStyle=1" parent="WIyWlLk6GJQsqaUBKTNV-1" source="D1PhwU7BzraxwxTcJcQY-0" target="D1PhwU7BzraxwxTcJcQY-6" edge="1">
          <mxGeometry relative="1" as="geometry" />
        </mxCell>
        <mxCell id="D1PhwU7BzraxwxTcJcQY-0" value="비콘 신호가 감지시작" style="rounded=1;whiteSpace=wrap;html=1;fontSize=12;glass=0;strokeWidth=1;shadow=0;sketch=1;fontStyle=1" parent="WIyWlLk6GJQsqaUBKTNV-1" vertex="1">
          <mxGeometry x="1679.69" y="-276" width="150" height="60" as="geometry" />
        </mxCell>
        <mxCell id="D1PhwU7BzraxwxTcJcQY-25" value="" style="edgeStyle=orthogonalEdgeStyle;rounded=0;orthogonalLoop=1;jettySize=auto;html=1;fontStyle=1" parent="WIyWlLk6GJQsqaUBKTNV-1" source="D1PhwU7BzraxwxTcJcQY-4" target="D1PhwU7BzraxwxTcJcQY-24" edge="1">
          <mxGeometry relative="1" as="geometry" />
        </mxCell>
        <mxCell id="D1PhwU7BzraxwxTcJcQY-28" value="" style="edgeStyle=orthogonalEdgeStyle;rounded=0;orthogonalLoop=1;jettySize=auto;html=1;fontStyle=1" parent="WIyWlLk6GJQsqaUBKTNV-1" source="D1PhwU7BzraxwxTcJcQY-4" target="D1PhwU7BzraxwxTcJcQY-27" edge="1">
          <mxGeometry relative="1" as="geometry" />
        </mxCell>
        <mxCell id="D1PhwU7BzraxwxTcJcQY-4" value="배열 안의 값이 3개 이상인가?" style="rhombus;whiteSpace=wrap;html=1;shadow=0;fontFamily=Helvetica;fontSize=12;align=center;strokeWidth=1;spacing=6;spacingTop=-4;sketch=1;fontStyle=1" parent="WIyWlLk6GJQsqaUBKTNV-1" vertex="1">
          <mxGeometry x="1955.69" y="171" width="201.26" height="90" as="geometry" />
        </mxCell>
        <mxCell id="D1PhwU7BzraxwxTcJcQY-13" style="edgeStyle=orthogonalEdgeStyle;rounded=0;orthogonalLoop=1;jettySize=auto;html=1;exitX=0.5;exitY=1;exitDx=0;exitDy=0;entryX=0.5;entryY=0;entryDx=0;entryDy=0;fontStyle=1" parent="WIyWlLk6GJQsqaUBKTNV-1" source="D1PhwU7BzraxwxTcJcQY-6" target="D1PhwU7BzraxwxTcJcQY-10" edge="1">
          <mxGeometry relative="1" as="geometry" />
        </mxCell>
        <mxCell id="D1PhwU7BzraxwxTcJcQY-6" value="감지된 비콘의&lt;br&gt;식별id(MAC) , RSSI를&lt;br&gt;분리한다" style="rounded=1;whiteSpace=wrap;html=1;fontSize=12;glass=0;strokeWidth=1;shadow=0;sketch=1;fontStyle=1" parent="WIyWlLk6GJQsqaUBKTNV-1" vertex="1">
          <mxGeometry x="1679.69" y="-181" width="150" height="60" as="geometry" />
        </mxCell>
        <mxCell id="D1PhwU7BzraxwxTcJcQY-11" style="edgeStyle=orthogonalEdgeStyle;rounded=0;orthogonalLoop=1;jettySize=auto;html=1;exitX=0.5;exitY=1;exitDx=0;exitDy=0;entryX=0.5;entryY=0;entryDx=0;entryDy=0;fontStyle=1" parent="WIyWlLk6GJQsqaUBKTNV-1" source="D1PhwU7BzraxwxTcJcQY-9" target="D1PhwU7BzraxwxTcJcQY-0" edge="1">
          <mxGeometry relative="1" as="geometry" />
        </mxCell>
        <mxCell id="D1PhwU7BzraxwxTcJcQY-9" value="Top3 리스트를&lt;br&gt;초기화한다.&lt;br&gt;[0, 0, 0]" style="rounded=1;whiteSpace=wrap;html=1;fontSize=12;glass=0;strokeWidth=1;shadow=0;sketch=1;fontStyle=1" parent="WIyWlLk6GJQsqaUBKTNV-1" vertex="1">
          <mxGeometry x="1679.69" y="-366" width="150" height="60" as="geometry" />
        </mxCell>
        <mxCell id="VRQnAfxVEdhuUYbV-LeW-9" style="edgeStyle=orthogonalEdgeStyle;rounded=0;orthogonalLoop=1;jettySize=auto;html=1;exitX=0.5;exitY=1;exitDx=0;exitDy=0;entryX=0.5;entryY=0;entryDx=0;entryDy=0;fontStyle=1" parent="WIyWlLk6GJQsqaUBKTNV-1" source="D1PhwU7BzraxwxTcJcQY-10" target="VRQnAfxVEdhuUYbV-LeW-8" edge="1">
          <mxGeometry relative="1" as="geometry" />
        </mxCell>
        <mxCell id="D1PhwU7BzraxwxTcJcQY-10" value="현재 리스트에 담겨있는 id 들을 찾아낸다" style="ellipse;whiteSpace=wrap;html=1;fontStyle=1" parent="WIyWlLk6GJQsqaUBKTNV-1" vertex="1">
          <mxGeometry x="1685.3100000000004" y="-96" width="138.76" height="80" as="geometry" />
        </mxCell>
        <mxCell id="D1PhwU7BzraxwxTcJcQY-17" value="Yes" style="text;strokeColor=none;fillColor=none;html=1;align=center;verticalAlign=middle;whiteSpace=wrap;rounded=0;sketch=1;hachureGap=4;fontFamily=Architects Daughter;fontSource=https%3A%2F%2Ffonts.googleapis.com%2Fcss%3Ffamily%3DArchitects%2BDaughter;fontSize=20;fontStyle=1" parent="WIyWlLk6GJQsqaUBKTNV-1" vertex="1">
          <mxGeometry x="1974.5099999999998" y="125" width="60" height="30" as="geometry" />
        </mxCell>
        <mxCell id="D1PhwU7BzraxwxTcJcQY-18" value="No" style="text;strokeColor=none;fillColor=none;html=1;align=center;verticalAlign=middle;whiteSpace=wrap;rounded=0;sketch=1;hachureGap=4;fontFamily=Architects Daughter;fontSource=https%3A%2F%2Ffonts.googleapis.com%2Fcss%3Ffamily%3DArchitects%2BDaughter;fontSize=20;fontStyle=1" parent="WIyWlLk6GJQsqaUBKTNV-1" vertex="1">
          <mxGeometry x="1685.3100000000004" y="125" width="60" height="30" as="geometry" />
        </mxCell>
        <mxCell id="D1PhwU7BzraxwxTcJcQY-30" value="" style="edgeStyle=orthogonalEdgeStyle;rounded=0;orthogonalLoop=1;jettySize=auto;html=1;fontStyle=1" parent="WIyWlLk6GJQsqaUBKTNV-1" source="D1PhwU7BzraxwxTcJcQY-24" target="D1PhwU7BzraxwxTcJcQY-29" edge="1">
          <mxGeometry relative="1" as="geometry" />
        </mxCell>
        <mxCell id="D1PhwU7BzraxwxTcJcQY-24" value="큐를 비운다." style="whiteSpace=wrap;html=1;shadow=0;strokeWidth=1;spacing=6;spacingTop=-4;sketch=1;fontStyle=1" parent="WIyWlLk6GJQsqaUBKTNV-1" vertex="1">
          <mxGeometry x="1996.3200000000002" y="301" width="120" height="60" as="geometry" />
        </mxCell>
        <mxCell id="D1PhwU7BzraxwxTcJcQY-26" value="Yes" style="text;strokeColor=none;fillColor=none;html=1;align=center;verticalAlign=middle;whiteSpace=wrap;rounded=0;sketch=1;hachureGap=4;fontFamily=Architects Daughter;fontSource=https%3A%2F%2Ffonts.googleapis.com%2Fcss%3Ffamily%3DArchitects%2BDaughter;fontSize=20;fontStyle=1" parent="WIyWlLk6GJQsqaUBKTNV-1" vertex="1">
          <mxGeometry x="1985.94" y="261" width="60" height="30" as="geometry" />
        </mxCell>
        <mxCell id="D1PhwU7BzraxwxTcJcQY-27" value="&lt;span&gt;비콘의 id와 rssi를담은&lt;/span&gt;&lt;br&gt;&lt;span&gt;비콘 오브젝트를&lt;/span&gt;&lt;br&gt;&lt;span&gt;&amp;nbsp;리스트에 추가한다.&lt;/span&gt;" style="whiteSpace=wrap;html=1;shadow=0;strokeWidth=1;spacing=6;spacingTop=-4;sketch=1;fillColor=#dae8fc;strokeColor=#6c8ebf;fontStyle=1" parent="WIyWlLk6GJQsqaUBKTNV-1" vertex="1">
          <mxGeometry x="2244.5800000000004" y="173.5" width="197.11" height="85" as="geometry" />
        </mxCell>
        <mxCell id="D1PhwU7BzraxwxTcJcQY-34" value="" style="edgeStyle=orthogonalEdgeStyle;rounded=0;orthogonalLoop=1;jettySize=auto;html=1;fontStyle=1" parent="WIyWlLk6GJQsqaUBKTNV-1" source="D1PhwU7BzraxwxTcJcQY-29" target="D1PhwU7BzraxwxTcJcQY-33" edge="1">
          <mxGeometry relative="1" as="geometry" />
        </mxCell>
        <mxCell id="D1PhwU7BzraxwxTcJcQY-29" value="비콘의 id와 rssi를담은&lt;br&gt;비콘 오브젝트를&lt;br&gt;&amp;nbsp;리스트에 추가한다." style="whiteSpace=wrap;html=1;shadow=0;strokeWidth=1;spacing=6;spacingTop=-4;sketch=1;fillColor=#dae8fc;strokeColor=#6c8ebf;fontStyle=1" parent="WIyWlLk6GJQsqaUBKTNV-1" vertex="1">
          <mxGeometry x="1963.5100000000002" y="401" width="185.62" height="83" as="geometry" />
        </mxCell>
        <mxCell id="D1PhwU7BzraxwxTcJcQY-31" value="No" style="text;strokeColor=none;fillColor=none;html=1;align=center;verticalAlign=middle;whiteSpace=wrap;rounded=0;sketch=1;hachureGap=4;fontFamily=Architects Daughter;fontSource=https%3A%2F%2Ffonts.googleapis.com%2Fcss%3Ffamily%3DArchitects%2BDaughter;fontSize=20;fontStyle=1" parent="WIyWlLk6GJQsqaUBKTNV-1" vertex="1">
          <mxGeometry x="2174.69" y="228.5" width="60" height="30" as="geometry" />
        </mxCell>
        <mxCell id="D1PhwU7BzraxwxTcJcQY-33" value="삼변측량 시작" style="rounded=1;whiteSpace=wrap;html=1;shadow=0;strokeWidth=1;spacing=6;spacingTop=-4;sketch=1;fontStyle=1" parent="WIyWlLk6GJQsqaUBKTNV-1" vertex="1">
          <mxGeometry x="1996.3200000000002" y="531" width="120" height="60" as="geometry" />
        </mxCell>
        <mxCell id="VRQnAfxVEdhuUYbV-LeW-2" value="동일한 비콘의&lt;br&gt;RSSI 를 수정한다." style="whiteSpace=wrap;html=1;shadow=0;strokeWidth=1;spacing=6;spacingTop=-4;sketch=1;fontStyle=1" parent="WIyWlLk6GJQsqaUBKTNV-1" vertex="1">
          <mxGeometry x="1675.3100000000004" y="365" width="158.75" height="80" as="geometry" />
        </mxCell>
        <mxCell id="VRQnAfxVEdhuUYbV-LeW-11" style="edgeStyle=orthogonalEdgeStyle;rounded=0;orthogonalLoop=1;jettySize=auto;html=1;exitX=0.5;exitY=1;exitDx=0;exitDy=0;entryX=0.5;entryY=0;entryDx=0;entryDy=0;fontStyle=1" parent="WIyWlLk6GJQsqaUBKTNV-1" source="VRQnAfxVEdhuUYbV-LeW-7" target="D1PhwU7BzraxwxTcJcQY-4" edge="1">
          <mxGeometry relative="1" as="geometry">
            <mxPoint x="2056.404285714286" y="184" as="targetPoint" />
          </mxGeometry>
        </mxCell>
        <mxCell id="VRQnAfxVEdhuUYbV-LeW-18" style="edgeStyle=orthogonalEdgeStyle;rounded=0;orthogonalLoop=1;jettySize=auto;html=1;exitX=1;exitY=0.5;exitDx=0;exitDy=0;entryX=1;entryY=0.5;entryDx=0;entryDy=0;fontStyle=1" parent="WIyWlLk6GJQsqaUBKTNV-1" source="VRQnAfxVEdhuUYbV-LeW-7" target="D1PhwU7BzraxwxTcJcQY-0" edge="1">
          <mxGeometry relative="1" as="geometry">
            <mxPoint x="2354.69" y="63.71428571428578" as="targetPoint" />
            <Array as="points">
              <mxPoint x="2384.69" y="64" />
              <mxPoint x="2384.69" y="-246" />
            </Array>
          </mxGeometry>
        </mxCell>
        <mxCell id="VRQnAfxVEdhuUYbV-LeW-7" value="새로 수신된 비콘 신호가&lt;br&gt;현재 리스트에&lt;br&gt;담겨있는 비콘들보다&lt;br&gt;RSSI값이 큰가?" style="rhombus;whiteSpace=wrap;html=1;shadow=0;fontFamily=Helvetica;fontSize=12;align=center;strokeWidth=1;spacing=6;spacingTop=-4;sketch=1;fillColor=#e1d5e7;strokeColor=#9673a6;fontStyle=1" parent="WIyWlLk6GJQsqaUBKTNV-1" vertex="1">
          <mxGeometry x="1924.69" y="4" width="264.07" height="120" as="geometry" />
        </mxCell>
        <mxCell id="VRQnAfxVEdhuUYbV-LeW-10" style="edgeStyle=orthogonalEdgeStyle;rounded=0;orthogonalLoop=1;jettySize=auto;html=1;exitX=1;exitY=0.5;exitDx=0;exitDy=0;entryX=0;entryY=0.5;entryDx=0;entryDy=0;fontStyle=1" parent="WIyWlLk6GJQsqaUBKTNV-1" source="VRQnAfxVEdhuUYbV-LeW-8" target="VRQnAfxVEdhuUYbV-LeW-7" edge="1">
          <mxGeometry relative="1" as="geometry">
            <mxPoint x="1934.69" y="63" as="targetPoint" />
          </mxGeometry>
        </mxCell>
        <mxCell id="VRQnAfxVEdhuUYbV-LeW-14" style="edgeStyle=orthogonalEdgeStyle;rounded=0;orthogonalLoop=1;jettySize=auto;html=1;exitX=0.5;exitY=1;exitDx=0;exitDy=0;entryX=0.5;entryY=0;entryDx=0;entryDy=0;fontStyle=1" parent="WIyWlLk6GJQsqaUBKTNV-1" source="VRQnAfxVEdhuUYbV-LeW-8" edge="1">
          <mxGeometry relative="1" as="geometry">
            <mxPoint x="1754.6950000000002" y="185" as="targetPoint" />
          </mxGeometry>
        </mxCell>
        <mxCell id="VRQnAfxVEdhuUYbV-LeW-8" value="새로 수신된 신호가&lt;br&gt;현재 리스트에 이미&lt;br&gt;담겨있는 비콘인가?" style="rhombus;whiteSpace=wrap;html=1;shadow=0;fontFamily=Helvetica;fontSize=12;align=center;strokeWidth=1;spacing=6;spacingTop=-4;sketch=1;fillColor=#ffe6cc;strokeColor=#d79b00;fontStyle=1" parent="WIyWlLk6GJQsqaUBKTNV-1" vertex="1">
          <mxGeometry x="1650.0000000000005" y="14" width="209.37" height="100" as="geometry" />
        </mxCell>
        <mxCell id="VRQnAfxVEdhuUYbV-LeW-15" style="edgeStyle=orthogonalEdgeStyle;rounded=0;orthogonalLoop=1;jettySize=auto;html=1;exitX=0.5;exitY=1;exitDx=0;exitDy=0;entryX=0.5;entryY=0;entryDx=0;entryDy=0;fontStyle=1" parent="WIyWlLk6GJQsqaUBKTNV-1" target="VRQnAfxVEdhuUYbV-LeW-2" edge="1">
          <mxGeometry relative="1" as="geometry">
            <mxPoint x="1754.6950000000002" y="305" as="sourcePoint" />
          </mxGeometry>
        </mxCell>
        <mxCell id="VRQnAfxVEdhuUYbV-LeW-13" value="새로 수신된 비콘 신호가&lt;br&gt;현재 리스트에&lt;br&gt;담겨있는 비콘들보다&lt;br&gt;RSSI값이 큰가?" style="rhombus;whiteSpace=wrap;html=1;shadow=0;fontFamily=Helvetica;fontSize=12;align=center;strokeWidth=1;spacing=6;spacingTop=-4;sketch=1;fillColor=#e1d5e7;strokeColor=#9673a6;fontStyle=1" parent="WIyWlLk6GJQsqaUBKTNV-1" vertex="1">
          <mxGeometry x="1622.65" y="183.5" width="264.07" height="120" as="geometry" />
        </mxCell>
        <mxCell id="VRQnAfxVEdhuUYbV-LeW-16" value="Yes" style="text;strokeColor=none;fillColor=none;html=1;align=center;verticalAlign=middle;whiteSpace=wrap;rounded=0;sketch=1;hachureGap=4;fontFamily=Architects Daughter;fontSource=https%3A%2F%2Ffonts.googleapis.com%2Fcss%3Ffamily%3DArchitects%2BDaughter;fontSize=20;fontStyle=1" parent="WIyWlLk6GJQsqaUBKTNV-1" vertex="1">
          <mxGeometry x="1694.69" y="324" width="60" height="30" as="geometry" />
        </mxCell>
        <mxCell id="VRQnAfxVEdhuUYbV-LeW-17" value="No" style="text;strokeColor=none;fillColor=none;html=1;align=center;verticalAlign=middle;whiteSpace=wrap;rounded=0;sketch=1;hachureGap=4;fontFamily=Architects Daughter;fontSource=https%3A%2F%2Ffonts.googleapis.com%2Fcss%3Ffamily%3DArchitects%2BDaughter;fontSize=20;fontStyle=1" parent="WIyWlLk6GJQsqaUBKTNV-1" vertex="1">
          <mxGeometry x="2254.69" y="74" width="60" height="30" as="geometry" />
        </mxCell>
        <mxCell id="VRQnAfxVEdhuUYbV-LeW-19" value="신호를 무시한다." style="text;html=1;strokeColor=none;fillColor=none;align=center;verticalAlign=middle;whiteSpace=wrap;rounded=0;fontStyle=1" parent="WIyWlLk6GJQsqaUBKTNV-1" vertex="1">
          <mxGeometry x="2240.94" y="24" width="100" height="30" as="geometry" />
        </mxCell>
        <mxCell id="VRQnAfxVEdhuUYbV-LeW-20" value="Yes" style="text;strokeColor=none;fillColor=none;html=1;align=center;verticalAlign=middle;whiteSpace=wrap;rounded=0;sketch=1;hachureGap=4;fontFamily=Architects Daughter;fontSource=https%3A%2F%2Ffonts.googleapis.com%2Fcss%3Ffamily%3DArchitects%2BDaughter;fontSize=20;fontStyle=1" parent="WIyWlLk6GJQsqaUBKTNV-1" vertex="1">
          <mxGeometry x="1859.3700000000001" y="29" width="60" height="30" as="geometry" />
        </mxCell>
        <mxCell id="VRQnAfxVEdhuUYbV-LeW-28" style="edgeStyle=orthogonalEdgeStyle;rounded=0;orthogonalLoop=1;jettySize=auto;html=1;exitX=1;exitY=0.5;exitDx=0;exitDy=0;entryX=0;entryY=0.5;entryDx=0;entryDy=0;fontStyle=1" parent="WIyWlLk6GJQsqaUBKTNV-1" source="VRQnAfxVEdhuUYbV-LeW-23" target="D1PhwU7BzraxwxTcJcQY-9" edge="1">
          <mxGeometry relative="1" as="geometry" />
        </mxCell>
        <mxCell id="VRQnAfxVEdhuUYbV-LeW-24" value="" style="edgeStyle=orthogonalEdgeStyle;rounded=0;orthogonalLoop=1;jettySize=auto;html=1;fontStyle=1" parent="WIyWlLk6GJQsqaUBKTNV-1" source="D1PhwU7BzraxwxTcJcQY-1" target="VRQnAfxVEdhuUYbV-LeW-23" edge="1">
          <mxGeometry relative="1" as="geometry" />
        </mxCell>
        <mxCell id="D1PhwU7BzraxwxTcJcQY-1" value="N 초 타이머 시작" style="rounded=1;whiteSpace=wrap;html=1;fontSize=12;glass=0;strokeWidth=1;shadow=0;sketch=1;hachureGap=4;fontFamily=Architects Daughter;fontSource=https%3A%2F%2Ffonts.googleapis.com%2Fcss%3Ffamily%3DArchitects%2BDaughter;fontStyle=1" parent="WIyWlLk6GJQsqaUBKTNV-1" vertex="1">
          <mxGeometry x="1083.7499999999998" y="-506" width="150" height="60" as="geometry" />
        </mxCell>
        <mxCell id="VRQnAfxVEdhuUYbV-LeW-26" style="edgeStyle=orthogonalEdgeStyle;rounded=0;orthogonalLoop=1;jettySize=auto;html=1;exitX=0.5;exitY=1;exitDx=0;exitDy=0;entryX=0;entryY=0.5;entryDx=0;entryDy=0;fontStyle=1" parent="WIyWlLk6GJQsqaUBKTNV-1" source="VRQnAfxVEdhuUYbV-LeW-23" target="VRQnAfxVEdhuUYbV-LeW-23" edge="1">
          <mxGeometry relative="1" as="geometry">
            <Array as="points">
              <mxPoint x="1158.75" y="-256" />
              <mxPoint x="993.75" y="-256" />
              <mxPoint x="993.75" y="-336" />
            </Array>
          </mxGeometry>
        </mxCell>
        <mxCell id="VRQnAfxVEdhuUYbV-LeW-27" style="edgeStyle=orthogonalEdgeStyle;rounded=0;orthogonalLoop=1;jettySize=auto;html=1;exitX=1;exitY=0.5;exitDx=0;exitDy=0;entryX=1;entryY=0.5;entryDx=0;entryDy=0;fontStyle=1" parent="WIyWlLk6GJQsqaUBKTNV-1" source="VRQnAfxVEdhuUYbV-LeW-23" target="D1PhwU7BzraxwxTcJcQY-1" edge="1">
          <mxGeometry relative="1" as="geometry">
            <Array as="points">
              <mxPoint x="1293.75" y="-336" />
              <mxPoint x="1293.75" y="-476" />
            </Array>
          </mxGeometry>
        </mxCell>
        <mxCell id="VRQnAfxVEdhuUYbV-LeW-23" value="타이머 이벤트&lt;br&gt;발생?" style="rhombus;whiteSpace=wrap;html=1;fontFamily=Architects Daughter;rounded=1;glass=0;strokeWidth=1;shadow=0;sketch=1;hachureGap=4;fontSource=https%3A%2F%2Ffonts.googleapis.com%2Fcss%3Ffamily%3DArchitects%2BDaughter;fontStyle=1" parent="WIyWlLk6GJQsqaUBKTNV-1" vertex="1">
          <mxGeometry x="1081.25" y="-376" width="155" height="80" as="geometry" />
        </mxCell>
        <mxCell id="VRQnAfxVEdhuUYbV-LeW-33" value="Yes" style="text;strokeColor=none;fillColor=none;html=1;align=center;verticalAlign=middle;whiteSpace=wrap;rounded=0;sketch=1;hachureGap=4;fontFamily=Architects Daughter;fontSource=https%3A%2F%2Ffonts.googleapis.com%2Fcss%3Ffamily%3DArchitects%2BDaughter;fontSize=20;fontStyle=1" parent="WIyWlLk6GJQsqaUBKTNV-1" vertex="1">
          <mxGeometry x="1253.7499999999998" y="-326" width="60" height="30" as="geometry" />
        </mxCell>
        <mxCell id="VRQnAfxVEdhuUYbV-LeW-34" value="No" style="text;strokeColor=none;fillColor=none;html=1;align=center;verticalAlign=middle;whiteSpace=wrap;rounded=0;sketch=1;hachureGap=4;fontFamily=Architects Daughter;fontSource=https%3A%2F%2Ffonts.googleapis.com%2Fcss%3Ffamily%3DArchitects%2BDaughter;fontSize=20;fontStyle=1" parent="WIyWlLk6GJQsqaUBKTNV-1" vertex="1">
          <mxGeometry x="1048.75" y="-246" width="60" height="30" as="geometry" />
        </mxCell>
        <mxCell id="VRQnAfxVEdhuUYbV-LeW-35" value="&lt;h1 style=&quot;font-size: 32px;&quot;&gt;thread.1&lt;/h1&gt;" style="text;html=1;strokeColor=none;fillColor=none;spacing=5;spacingTop=-20;whiteSpace=wrap;overflow=hidden;rounded=0;fontSize=32;" parent="WIyWlLk6GJQsqaUBKTNV-1" vertex="1">
          <mxGeometry x="873.12" y="-516" width="190" height="120" as="geometry" />
        </mxCell>
        <mxCell id="VRQnAfxVEdhuUYbV-LeW-37" value="&lt;h1 style=&quot;font-size: 32px;&quot;&gt;thread.2&lt;/h1&gt;" style="text;html=1;strokeColor=none;fillColor=none;spacing=5;spacingTop=-20;whiteSpace=wrap;overflow=hidden;rounded=0;fontSize=32;" parent="WIyWlLk6GJQsqaUBKTNV-1" vertex="1">
          <mxGeometry x="1511.56" y="-486" width="190" height="120" as="geometry" />
        </mxCell>
        <mxCell id="VRQnAfxVEdhuUYbV-LeW-38" value="" style="endArrow=none;dashed=1;html=1;rounded=0;fontSize=32;" parent="WIyWlLk6GJQsqaUBKTNV-1" edge="1">
          <mxGeometry width="50" height="50" relative="1" as="geometry">
            <mxPoint x="827" y="-800" as="sourcePoint" />
            <mxPoint x="2447" y="-800" as="targetPoint" />
          </mxGeometry>
        </mxCell>
        <mxCell id="VRQnAfxVEdhuUYbV-LeW-40" value="&lt;h1&gt;일정&lt;/h1&gt;" style="text;html=1;strokeColor=none;fillColor=none;spacing=5;spacingTop=-20;whiteSpace=wrap;overflow=hidden;rounded=0;" parent="WIyWlLk6GJQsqaUBKTNV-1" vertex="1">
          <mxGeometry x="1950.6899999999998" y="-1080" width="190" height="40" as="geometry" />
        </mxCell>
        <mxCell id="VRQnAfxVEdhuUYbV-LeW-41" value="" style="endArrow=none;html=1;rounded=0;fontSize=32;strokeWidth=3;fillColor=#f8cecc;strokeColor=#b85450;" parent="WIyWlLk6GJQsqaUBKTNV-1" edge="1">
          <mxGeometry width="50" height="50" relative="1" as="geometry">
            <mxPoint x="1100" y="-1010" as="sourcePoint" />
            <mxPoint x="1120" y="-1020" as="targetPoint" />
            <Array as="points">
              <mxPoint x="1110" y="-1000" />
            </Array>
          </mxGeometry>
        </mxCell>
        <mxCell id="VRQnAfxVEdhuUYbV-LeW-42" value="&lt;h1 style=&quot;font-size: 48px&quot;&gt;Location.py&lt;/h1&gt;" style="text;html=1;strokeColor=none;fillColor=none;spacing=5;spacingTop=-20;whiteSpace=wrap;overflow=hidden;rounded=0;fontSize=32;" parent="WIyWlLk6GJQsqaUBKTNV-1" vertex="1">
          <mxGeometry x="873.12" y="-790" width="296.88" height="120" as="geometry" />
        </mxCell>
      </root>
    </mxGraphModel>
  </diagram>
</mxfile>
